<?xml version="1.0" encoding="utf-8"?>
<!-- Generator: Adobe Illustrator 16.0.0, SVG Export Plug-In . SVG Version: 6.00 Build 0)  -->
<!DOCTYPE svg PUBLIC "-//W3C//DTD SVG 1.1//EN" "http://www.w3.org/Graphics/SVG/1.1/DTD/svg11.dtd">
<svg version="1.1" id="图层_1" xmlns="http://www.w3.org/2000/svg" xmlns:xlink="http://www.w3.org/1999/xlink" x="0px" y="0px"
	 width="940px" height="823px" viewBox="71.726 31.979 940 823" enable-background="new 71.726 31.979 940 823"
	 xml:space="preserve">
<path fill="#3B484E" d="M340.699,42.403c3.872-0.521,13.787-0.289,18.026-0.259l30.01,0.085l112.483,0.102l155.218-0.042
	l49.466-0.081c13.3-0.011,25.863-0.103,39.163,0.929c23.246,1.802,36.734,8.728,49.146,28.855
	c12.068,19.574,23.601,39.476,35.274,59.307l63.942,108.479l68.748,117.107l18.932,32.113c8.11,13.502,19.492,29.356,21.894,45.02
	c3.528,23.006-6.031,39.426-17.047,57.977l-19.816,33.428c-22.443,39.01-45.248,77.813-68.412,116.4
	c-23.967,41.191-48.246,82.205-72.834,123.027l-18.51,30.902c-16.713,28.125-23.014,42.711-58.742,47.289
	c-0.337,0.057-0.675,0.107-1.014,0.152c-12.856,1.727-44.567,0.525-59.012,0.504l-123.357-0.076l-155.966,0.152
	c-12.7-0.041-25.402,0.008-38.104,0.145c-21.53,0.318-46.406,2.664-64.452-11.375c-12.219-9.504-19.207-23.35-26.835-36.465
	c-4.715-8.104-9.392-16.221-14.178-24.293l-72.476-124.652l-66.704-113.451c-11.886-20.057-24.147-39.932-35.661-60.229
	c-8.66-15.377-9.007-41.035-0.985-56.705c6.359-12.429,15.076-25.625,22.265-37.901l55.256-93.933l85.646-147.978l26.807-46.055
	C296.028,61.572,302.983,46.635,340.699,42.403z"/>
<path fill="#3B484E" d="M141.985,503.598c-5.205-9.672-10.985-18.975-16.496-28.463c-6.615-11.393-16.765-24.539-12.519-38.5
	c3.382-11.125,11.257-20.459,17.001-30.45l52.819-90.247l92.196-158.016l26.515-46.212c4.458-7.854,8.978-16.142,13.604-23.854
	c12.096-20.159,42.107-15.975,62.597-15.805l41.452,0.175l111.117,0.236l112.947,0.036l57.431-0.244
	c19.707-0.104,54.041-5.018,67.131,13.616c3.376,4.806,7.17,12.478,10.142,17.752c5.644,9.89,11.35,19.746,17.115,29.566
	l62.657,105.993l75.032,127.704l23.346,39.534c4.896,8.169,9.817,16.281,14.561,24.519c9.376,16.287-3.312,32.59-11.516,46.301
	c-5.219,8.721-10.598,17.361-15.301,26.398c-10.11,17.539-20.84,35.043-31.131,52.529l-87.263,147.734
	c-12.873,21.719-25.61,43.518-38.209,65.396c-6.35,10.842-12.822,22.117-19.561,32.689c-1.704,2.674-9.408,9.104-12.229,9.627
	c-17.827,3.299-40.302,2.26-58.46,2.213l-75.772-0.146l-56.578,0.188c-7.745,0.027-21.881,0.479-29.348-0.082l-132.755,0.049
	l-37.398,0.018c-11.089,0.008-23.75,0.438-34.621-1.813c-3.878-0.801-10.301-6.432-12.454-9.688
	c-7.983-12.066-15.397-25.076-22.679-37.578l-36.777-62.838l-90.133-153.4C159.746,533.579,150.459,518.569,141.985,503.598z"/>
<path fill="#FFFFFF" d="M141.985,503.598c-5.205-9.672-10.985-18.975-16.496-28.463c-6.615-11.393-16.765-24.539-12.519-38.5
	c3.382-11.125,11.257-20.459,17.001-30.45l52.819-90.247l92.196-158.016l26.515-46.212c4.458-7.854,8.978-16.142,13.604-23.854
	c12.096-20.159,42.107-15.975,62.597-15.805l41.452,0.175l111.117,0.236l112.947,0.036l57.431-0.244
	c19.707-0.104,54.041-5.018,67.131,13.616c3.376,4.806,7.17,12.478,10.142,17.752c5.644,9.89,11.35,19.746,17.115,29.566
	l62.657,105.993l75.032,127.704l23.346,39.534c4.896,8.169,9.817,16.281,14.561,24.519c9.376,16.287-3.312,32.59-11.516,46.301
	c-5.219,8.721-10.598,17.361-15.301,26.398c-2.979-0.166-3.354-0.305-6.07-1.424c7.637-14.17,30.411-44.695,30.479-59.344
	c0.02-4.436-2.855-9.625-4.902-13.42c-5.521-10.24-12.026-20.072-18.047-30.036c-8.563-14.177-16.839-28.538-25.213-42.827
	l-98.743-167.61c-16.15-27.063-31.093-54.706-47.399-81.646c-5.517-9.111-11.252-17.93-18.707-25.606
	c-15.821-1.996-38.395-1.209-54.912-1.223l-91.435-0.042l-168.724,0.022c-32.815-0.044-65.68-0.134-98.496-0.073
	c-2.174,0.004-10.643,0.354-12.372,1.224c-4.531,2.532-7.519,7.089-10.162,11.393c-7.369,12-14.229,24.302-21.286,36.482
	l-42.318,73.058c-33.908,56.862-67.261,114.055-100.052,171.569c-7.271,12.872-15.283,25.325-22.688,38.069
	c-6.034,10.384-17.704,26.255-13.033,38.837c6.551,17.641,18.479,34.02,27.521,50.703
	C145.987,503.026,143.828,503.081,141.985,503.598z"/>
<path fill="#FFFFFF" d="M520.381,809.333c11.696-0.775,32.173,0.012,44.726-0.113l130.405-0.029
	c17.151-0.012,36.919,1.055,53.672-1.102c12.151-1.563,24.434-27.131,30.53-37.305l36.886-62.59l74.278-126.297
	c15.48-26.645,31.104-53.205,46.868-79.686c2.718,1.121,3.093,1.26,6.07,1.426c-10.11,17.539-20.84,35.041-31.131,52.527
	l-87.263,147.736c-12.873,21.719-25.61,43.518-38.209,65.396c-6.35,10.842-12.822,22.117-19.561,32.689
	c-1.704,2.674-9.408,9.104-12.229,9.627c-17.827,3.299-40.302,2.26-58.46,2.213l-75.772-0.146l-56.578,0.188
	c-7.745,0.027-21.881,0.479-29.348-0.082c-5.86-1.41-11.742,0.828-14.757-1.791L520.381,809.333z"/>
<path fill="#FFFFFF" d="M147.256,501.745c12.073,18.404,24.348,40.959,35.694,60l96.668,164.875
	c8.418,14.188,16.746,28.432,24.985,42.725c27.13,46.957,22.655,40.084,75.458,39.766l97.659,0.139
	c9.219,0.01,34.73-0.959,42.659,0.084l0.128,2.662c3.015,2.621,8.896,0.381,14.757,1.791l-132.755,0.049l-37.398,0.018
	c-11.089,0.008-23.75,0.438-34.621-1.811c-3.878-0.801-10.301-6.434-12.454-9.689c-7.983-12.064-15.397-25.076-22.679-37.578
	l-36.777-62.836l-90.133-153.402c-8.701-14.955-17.988-29.967-26.463-44.938C143.828,503.081,145.987,503.026,147.256,501.745z"/>
<path fill="#ECECEB" d="M440.719,257.687c40.329-0.398,78.74,58.371,101.745,85.675c22.169-24.743,39.123-49.641,66.31-69.955
	c35.999-26.898,52.029-13.539,48.662,29.299c-1.742,22.176-9.087,42.049-16.371,62.931c-2.71,7.801-8.564,18.425-9.86,26.153
	l-0.124,0.766c5.823,1.327,12.331,1.046,18.354,2.173c34.486,6.451,77.088,11.765,101.489,39.766
	c5.857,6.723-1.49,23.275-3.17,31.529c-2.764,2.893-4.346,3.93-7.855,5.629l-7.465-1.641c-6.547,2.623-12.725,5.541-19.438,7.941
	c-26.911,9.42-55.023,14.975-83.498,16.494c6.401,15.18,12.25,30.588,17.53,46.191c5.569,16.992,9.826,33.121,10.518,51.098
	c0.647,16.904-1.118,30.371-19.2,36.188c-26.218-5.676-46.032-26.74-64.185-45.193c-11.586-11.777-20.719-25.275-32.229-37.17
	c-6.411,8.447-15.884,18.197-20.558,27.492c-0.485,0.967-0.699,5.756-0.769,7.141c-2.415,3.041-3.112,3.887-6.107,6.293
	c-2.813,0.488-5.667,0.625-8.52,0.832c-17.995,13.459-41.012,46.645-69.281,39.133c-3.924-1.043-9.187-7.967-10.234-11.941
	c-9.819-37.199,12.308-86.951,27.215-120.518c-32.569-0.811-71.794-11.074-100.817-24.754
	c-29.291-13.811-29.848-34.084-1.896-48.669c31.228-16.295,66.1-23.168,100.37-25.963c-4.162-15.343-12.438-32.885-17.215-48.513
	c-3.365-9.123-4.744-18.854-7.232-28.153c-3.401-12.709-17.141-14.019-3.371-27.357C423.252,275.728,424.89,262.426,440.719,257.687
	z"/>
<path fill="#3B484E" d="M633.371,266.144c3.539-0.257,8.601-0.138,12.252-0.162c18.397,22.755-3.095,74.93-10.906,99.553
	c-2.644,8.325-7.531,16.922-10.196,26.141l-28.653-1.085c-6.101-0.229-20.23,0.195-24.56-3.89
	c-8.509-14.066-16.519-25.307-25.855-38.785C559.818,325.308,607.927,272.272,633.371,266.144z"/>
<path fill="#3B484E" d="M447.551,400.113c1.623-0.243,5.872-0.227,7.727-0.26c3.905,6.615,7.295,14.96,10.814,21.929
	c3.918,7.758,8.216,15.438,11.786,23.322c-1.712,4.76-5.212,10.918-7.755,15.482c-5.545,9.957-9.569,17.271-13.02,28.154
	c-7.299,0.258-12.755-1.518-19.754-2.281c-19.269-2.105-36.795-6.754-55.546-11.605c-39.854-11.346-73.933-33.094-13.723-56.479
	c19.623-7.623,40.365-11.366,61.071-14.653C435.286,402.748,441.179,400.855,447.551,400.113z"/>
<path fill="#3B484E" d="M622.42,496.342c1.389-0.223,1.302-0.268,2.617,0.191c2.298,4.484,5.307,13.402,7.282,18.436
	c10.107,25.725,17.872,51.361,20.444,79.016c1.056,11.352-0.416,17.281-7.686,25.75c-4.178,0.191-9.932,0.561-13.945-0.066
	c-11.521-1.799-23.245-12.176-31.853-19.58c-15.447-13.799-43.042-42.811-52.99-59.711c5.37-7.303,10.659-14.666,15.865-22.086
	c4.292-6.203,9.443-14.078,14.178-19.834C591.722,498.584,607.107,497.877,622.42,496.342z"/>
<path fill="#3B484E" d="M511.845,396.058c18.669-0.461,38.901-0.274,57.627-0.159c10.717,13.569,21.349,32.309,28.973,47.713
	c-8.574,15.877-19.337,33.047-29.141,48.193c-9.002,3.152-45.186,1.627-55.806,0.957c-8.661-14.424-20.981-34.797-28.117-49.664
	c1.521-2.846,2.973-5.723,4.421-8.605C496.441,421.273,504.705,408.998,511.845,396.058z"/>
<path fill="#ECECEB" d="M540.984,419.284c13.388-0.418,24.621,10.01,25.199,23.389c0.578,13.381-9.714,24.738-23.088,25.479
	c-8.795,0.484-17.172-3.797-21.933-11.207c-4.759-7.412-5.165-16.811-1.063-24.605S532.18,419.557,540.984,419.284z"/>
<path fill="#3B484E" d="M442.628,266.678c1.377-0.034,2.753,0.05,4.113,0.25c30.502,4.188,73.668,58.987,91.687,82.691
	c-8.369,11.961-16.645,21.959-24.504,34.659l-3.58,5.232c-5.758,1.304-16.929,1.349-23.307,1.595
	c-8.961,0.401-17.92,0.861-26.875,1.378c-3.875-10.641-8.505-21.043-12.223-31.882c-5.703-16.622-9.838-33.113-14.124-50.124
	c2.738-3.798,4.173-6.708,6.307-10.825c-2.364-4.957-3.59-6.068-7.712-9.816C431.759,279.561,432.02,271.371,442.628,266.678z"/>
<path fill="#3B484E" d="M459.616,495.309c4.354,3.26,41.908,2.896,50.106,3.016c8.921,13.666,18.175,26.482,27.122,39.992
	c-5.055,7.465-16.202,20.551-22.327,27.465l-9.721,0.873c-3.749,6.154-4.179,7.656-4.357,14.848
	c-4.079,4.771-10.892,10.727-15.602,14.863c-23.205,19.693-58.562,44.098-52.931-9.857
	C435.219,554.793,447.591,524.538,459.616,495.309z"/>
<path fill="#3B484E" d="M626.504,400.27c21.775,0.661,49.081,7.772,71.016,13.339c10.334,2.623,50.486,16.149,45.916,33.005
	c-0.707,2.605-10.208,5.732-13.402,7.25l-1.937,6.842c-5.474,5.289-13.41,7.648-20.488,10.199
	c-27.979,8.467-52.533,12.871-81.221,17.021c-6.175-16.047-13.395-27.867-20.346-43.182
	C612.867,428.829,621.046,416.897,626.504,400.27z"/>
<path fill="#3B484E" d="M481.589,451.424c3.548,4.248,21.544,35.879,22.058,40.801c-2.671,1.168-14.151-0.641-17.512-1.057
	c-7.791-0.738-16.495-1.383-24.157-2.568C467.67,475.78,474.221,463.36,481.589,451.424z"/>
<path fill="#3B484E" d="M541.108,353.635c4.934,3.251,20.324,28.643,24.151,34.902c-8.183-0.659-16.384-0.504-24.587-0.466
	c-7.346-0.013-16.364,0.876-24.025,1.165C524.423,377.113,532.579,365.24,541.108,353.635z"/>
<path fill="#3B484E" d="M499.297,396.207c2.275-0.24,4.016-0.679,5.658,1.072c-0.389,3.574-18.245,29.7-21.849,40.101
	c-2.104-2.895-3.349-5.133-5.11-8.273c-4.711-9.688-9.661-19.254-14.853-28.693C474.969,398.94,487.484,397.208,499.297,396.207z"/>
<path fill="#3B484E" d="M518.962,498.571c16.668,0.266,28.769,1.176,45.855,0.354c-4.365,7.365-8.657,13.482-13.751,20.316
	c-3.563,5.148-6.41,9.133-10.365,13.969C536.402,528.254,519.46,504.497,518.962,498.571z"/>
<path fill="#3B484E" d="M601.967,451.938c6.054,4.934,16.374,28.967,19.519,36.494c-7.633,0.777-15.821,1.311-23.497,1.934
	c-5.719,0.227-12.807,1.584-18.409,2.711C586.99,479.034,595.05,466.069,601.967,451.938z"/>
<path fill="#3B484E" d="M578.116,395.848c5.753,0.88,12.572,1.024,18.432,1.611c8.066,0.809,16.071,1.811,24.116,2.806
	c-4.753,8.346-8.355,15.54-12.611,24.144c-2.254,4.102-4.078,8.229-6.021,12.48C597.199,430.237,581.948,403.716,578.116,395.848z"
	/>
<path fill="#ED8540" d="M676.542,651.971c6.25-0.131,12.043,3.379,14.789,10.082c2.248,5.484-0.387,10.369,5.729,11.344
	c2.445,0.391,7.403,3.703,8.75,5.537c14.21,19.342-3.53,27.373-17.556,35.982l-0.881,0.301
	c-2.496-1.373-29.723-44.938-33.267-50.836C659.46,660.442,670.395,653.375,676.542,651.971z"/>
<path fill="#3B484E" d="M690.972,679.473c5.034,0.121,8.022,2.365,10.588,6.617c6.284,10.42-4.813,15.191-11.673,19.455
	c-2.903-2.904-9.844-14.248-12.243-18.051C681.934,684.344,686.129,681.686,690.972,679.473z"/>
<path fill="#3B484E" d="M675.357,659.727c6.534-0.773,11.979,5.332,10.69,11.707c-0.77,3.805-7.936,7.383-11.305,9.434
	c-2.32-0.688-8.729-11.539-10.624-14.453C668.251,663.713,671.014,662.065,675.357,659.727z"/>
<path fill="#ED8540" d="M495.402,689.049c2.863-0.1,5.794-0.426,8.323,0.793c2.075,2.254,9.1,41.744,11.426,49.354l0.249,0.801
	c7.241-13.018,13.804-33.572,20.156-47.666c1.229-0.021,8.904-0.129,8.811,1.592c-0.892,16.383-0.684,41.807-4.38,57.402
	c-1.396,1.645-0.699,1.27-2.627,1.805c-7.507-1.338-2.693-21.117-2.092-27.869c0.477-5.678,0.836-11.365,1.077-17.059
	c-3.251,8.732-10.402,30.793-16.912,37.98c-1.39,1.533-7.609,0.203-9.782-0.166c-3.262-8.922-6.894-29.914-8.459-39.963
	c-2.709,9.828-2.339,21.66-3.541,31.801c-0.497,4.193,0.036,14.529-7.604,9.387C488.309,744.2,494.403,695.823,495.402,689.049z"/>
<path fill="#ED8540" d="M509.906,130.523c5.726-0.026,8.011,1.739,10.41,7.135c2.535,5.703,4.279,12.204,6.164,18.19
	c3.236,10.415,6.56,20.803,9.97,31.162c-0.285,1.227-0.076,1.203-1.305,1.97c-8.547,5.332-7.672-11.013-10.983-14.944
	c-1.262-1.498-0.95-1.049-2.786-1.324c-5.427,0.513-10.313,0.93-15.684,1.884c-0.431,4.388-0.478,14.277-3.042,17.669
	c-0.854,1.132-2.146,1.053-3.377,1.165c-0.65-0.306-2.057-0.773-2.03-1.862c0.428-17.608,2.307-38.987,5.491-56.215
	C503.18,132.944,508.195,131.118,509.906,130.523z"/>
<path fill="#3B484E" d="M509.723,138.004c1.097,0.088,1.406,0.273,2.45,0.648c2.815,3.068,8.387,21.303,8.87,25.766
	c-1.162,1.366-1.164,0.95-3.474,1.361c-3.803,0.364-7.61,0.663-11.424,0.897C506.566,160.195,507.438,143.372,509.723,138.004z"/>
<path fill="#ED8540" d="M630.746,675.071c3.013,0.264,6.157,0.949,7.583,3.654c4.031,7.658,27.416,39.98,28.583,45.871
	c-1.017,1.65-1.136,1.686-2.763,2.816c-8.658,1.125-7.452-15.828-16.857-13.393c-4.932,1.742-8.276,3.016-13.038,5.205
	c0.635,5.281,5.325,19.383-2.778,19.701c-1.304-0.756-1.682-1.201-1.979-2.871c-3.045-17.137-6.141-34.658-7.929-51.963
	C621.066,679.221,626.548,676.034,630.746,675.071z"/>
<path fill="#3B484E" d="M629.789,682.475l1.618,0.242c3.247,2.205,13.813,19.271,14.908,23.088c-0.908,1.508-2.829,1.93-4.562,2.59
	l-8.887,3.154C631.698,706.1,627.764,686.434,629.789,682.475z"/>
<path fill="#ED8540" d="M711.266,175.435c1.093,0.491,2.625,1.03,3.467,1.871c2.167,2.165-4.077,42.557-4.577,48.695
	c3.757-4.986,21.456-33.323,24.812-34.075c1.192,0.292,2.017,0.584,2.977,1.385c0.808,0.674,1.007,0.912,1.01,2.055
	c0.013,3.319-29.297,45.218-33.293,49.386c-5.956-3.396-4.943-4.191-4.055-10.63c1.87-13.514,3.882-26.893,5.007-40.5
	c-4.559,5.88-21.415,32.576-25.785,33.736c-2.381-1.035-3.401-1.652-3.862-4.217c1.934-4.512,12.424-18.573,15.742-22.947
	C698.232,192.914,705.376,182.183,711.266,175.435z"/>
<path fill="#ED8540" d="M759.827,218.898c14.909-0.448,28.042,18.125,15.952,30.125c-1.763,1.75-2.208,3.031-4.77,3.293
	c-8.105-4.496,1.685-9.549,1.646-13.42c0.744-10.656-10.636-16.384-18.567-8.646c-6.323,6.167-27.258,19.212-23.134,29.506
	c3.693,9.221,11.119,10.311,18.467,4.118l5.677-5.518c-2.485-2.663-4.539-5.098-6.859-7.911l4.672-4.517
	c3.949,3.544,8.662,9.077,12.011,13.172c-11.218,11.384-23.846,26.59-38.869,7.229c-9.924-12.789,0.677-23.069,10.5-30.852
	C744.274,229.359,749.115,221.228,759.827,218.898z"/>
<path fill="#ED8540" d="M410.62,652.75c8.489,1.203,4.636,7.494,1.799,12.418c-2.197,3.809-4.547,7.578-6.829,11.34
	c5.798,3.822,12.408,7.584,18.425,11.156c3.995-6.35,7.517-13.145,11.795-19.266c0.529-0.195,1.058-0.391,1.588-0.584
	c1.983,0.217,2.035,0.254,3.63,1.533c1.396,2.77-0.477,6.197-2.205,8.406c-4.757,6.086-21.881,40.703-26.378,43.855
	c-1.797,0.34-2.856-0.441-4.574-1.258l-0.677-2.068c0.811-4.402,10.567-19.676,13.395-24.373
	c-6.23-3.584-12.521-7.412-18.719-11.086c-4.006,6.941-9.391,17.783-14.584,24.014c-1.023,1.229-4.477-1.59-5.296-3.146
	C382.316,700.233,406.635,658.825,410.62,652.75z"/>
<path fill="#ED8540" d="M396.365,167.743c1.216,0.093,2.429,0.249,3.628,0.468c5.653,1.078,9.146,4.976,12.159,9.47
	c-1.71,1.404-3.46,2.523-5.295,3.752c-18.851-17.998-25.935,12.222-6.889,10.04c9.472-1.085,17.968-4.883,25.53,4.255
	c12.563,15.179-0.554,34.566-18.897,32.017c-5.338-1.79-13.464-6.62-12.801-13.088c0.949-1.89,2.38-2.305,4.329-3.309
	c5.78,7.255,13.862,14.065,22.854,4.12c1.66-1.836,2.075-6.094,1.386-8.522c-4.353-18.279-24.586-2.287-33.825-9.367
	C375.366,187.482,380.42,170.783,396.365,167.743z"/>
<path fill="#ED8540" d="M462.019,139.885l1.936,0.396c1.312,0.927,1.978,2.702,2.48,4.343c4.404,14.033,10.19,26.788,12.981,41.281
	c3.51,18.216-26.021,25.908-33.177,12.816c-5.874-10.749-9.757-28.072-13.642-40.371c-1.364-3.788-2.762-7.236,1.6-9.66
	c0.979,0.138,1.688-0.072,3.241,1.844c8.263,10.195,8.741,60.32,31.351,44.595c10.291-7.158-10.767-39.683-10.366-52.538
	C459.578,140.781,459.971,140.973,462.019,139.885z"/>
<path fill="#ED8540" d="M709.348,623.268c0.535-0.041,1.071-0.072,1.605-0.1c6.815-0.314,11.105,2.412,15.893,6.822
	c-1.725,2.084-2.788,3.049-4.771,4.859c-3.773-2.371-5.856-3.957-10.605-3.469c-4.464,0.459-7.759,2.658-6.749,7.648
	c3.252,16.059,17.873,2.539,26.877,1.502c4.647-0.537,8.676-0.047,12.557,2.889c8.524,6.52,11.603,17.496,4.504,26.471
	c-4.526,5.729-9.078,7.885-16.148,8.898c-4.979-0.689-13.311-3.672-15.276-8.711c0.41-1.691,0.538-1.656,1.702-2.879
	c6.002-1.943,10.822,6.479,17.747,3.41c5.479-2.432,10.763-8.965,7.592-15.029c-9.455-18.088-23.515,3.83-36.571-1.246
	c-4.08-1.574-7.329-5.559-9.026-9.572c-1.647-3.834-1.653-8.174-0.019-12.012C700.634,628.114,704.876,625.165,709.348,623.268z"/>
<path fill="#ED8540" d="M375.581,626.18c16.49,0.904,27.552,19.988,13.145,31.91c-1.438,1.191-2.688,1.047-4.317,0.738
	c-4.605-4.287,1.395-7.713,2.787-11.914c3.766-8.078-10.123-16.838-15.967-10.994c-8.874,8.875-31.138,22.99-22.056,36.281
	c10.038,9.611,15.684-1.799,22.471-1.92c5.47,3.127,0.146,7.484-2.736,9.756c-11.436,9.004-27.514,0.471-30.076-12.715
	c-1.599-6.936,4.077-14.854,8.992-19.383C356.063,640.344,363.915,627.846,375.581,626.18z"/>
<path fill="#ED8540" d="M455.827,675.801c4.313,0.809,27.317,7.738,28.73,10.418c-0.491,1.986-0.573,3.24-2.003,4.668
	c-3.213,0.574-17.534-4.707-21.581-6.051c-2.039,5.482-3.956,11.01-5.751,16.576c5.166,2.18,15.211,4.191,17.449,8.465
	c-0.015,2.465,0.157,1.502-1.249,3.949c-2.759,0.893-14.714-4.195-18.646-5.572l-3.084,9.025l-3.645,11.391
	c7.061,2.297,15.353,4.789,22.045,7.721c-0.536,2.389-1.267,4.33-2.074,6.621c-9.838-3.25-19.846-6.441-29.539-10.076
	c0.763-2.777,1.809-5.752,2.76-8.49C444.843,708.315,449.846,691.776,455.827,675.801z"/>
<path fill="#ED8540" d="M330.653,213.47l1.729,0.378c1.338,1.125,30.895,43.094,31.018,45.088
	c1.398,22.687-16.747,10.039-26.262,4.04c-9.301-5.951-18.671-11.792-28.108-17.524c-1.278-0.691-1.931-1.234-3.062-2.107
	c-1.063-3.053,0.137-4.641,2.933-5.79c5.49-0.262,41.392,28.133,46.712,26.043c2.125-6.857-26.143-37.082-28.021-45.862
	C327.913,215.722,329.128,214.943,330.653,213.47z"/>
<path fill="#ED8540" d="M632.197,140.25c1.653,0.285,6.984,1.773,8.489,2.489c4.329,2.061,19.915,4.905,21.346,9.387
	c-1.127,6.835-11.104,14.448-16.171,19.131c-8.133,7.438-16.179,14.97-24.137,22.595c4.953,1.818,21.867,6.696,24.706,9.289
	c0.164,2.181-0.708,3.739-1.528,5.818c-3.918-0.463-29.088-8.745-32.146-11.288c-1.527-6.15,11.729-16.521,16.113-20.621
	l24.188-22.601c-3.933-1.41-20.533-6.144-22.33-8.396C630.484,143.711,631.277,142.446,632.197,140.25z"/>
<path fill="#ED8540" d="M576.531,689.665c2.229-0.24,3.146-0.463,5.395-0.004c2.368,1.842,2.749,7.037,3.34,10.104
	c2.616,13.574,5.032,27.184,7.889,40.709c3.914-0.764,18.694-4.002,21.416-3.291c1.421,2.4,2.656,5.824-0.424,7.146
	c-9.068,1.563-18.113,3.25-27.134,5.061c-0.6-2.143-2.736-12.305-2.915-14.178C583.439,728.321,574.795,693.905,576.531,689.665z"/>
<path fill="#ED8540" d="M557.103,128.784c2.098,0.322,2.72,0.241,4.341,1.468c1.314,3.246-2.796,45.448-3.154,52.744
	c6.261,0.575,12.875-0.02,19.077,1.404c3.527,0.81,3.494,5.15,1.686,7.159l-2.063,0.055c-8.693-0.829-18.093-0.759-26.719-2.173
	c0.657-19.193,2.881-39.762,4.559-58.95C554.908,129.58,556.261,129.217,557.103,128.784z"/>
<path fill="#ED8540" d="M660.534,204.525c3.016-6.27,19.315-41.611,22.584-43.628c2.317-0.134,5.682,1.733,5.031,3.45
	c-4.717,12.48-14.852,31.353-20.42,42.873c-1.646,3.7-4.152,11.041-9.449,9.513C655.354,212.985,658.716,207.966,660.534,204.525z"
	/>
<path fill="#ED8540" d="M603.344,134.374c2.968-0.039,5.021-0.167,6.45,2.71c-0.291,5.222-10.118,53.878-12.011,58.155
	c-2.457-0.063-4.185,0.039-5.892-1.688C590.928,191.035,601.509,139.735,603.344,134.374z"/>
<path fill="#ED8540" d="M354.007,194.435c3.172,0.906,15.319,17.231,17.892,20.764c3.162,4.343,19.351,23.244,19.416,26.47
	c-0.83,2.013-2.119,2.569-3.964,3.816c-2.047-0.49-4.845-3.807-5.893-5.467c-3.8-6.023-30.745-37.25-31.188-41.773
	C350.972,196.218,352.2,195.69,354.007,194.435z"/>
<circle fill="#FFFFFF" cx="316.086" cy="65.08" r="8.5"/>
<circle fill="#FFFFFF" cx="762.798" cy="63.08" r="8.5"/>
<circle fill="#FFFFFF" cx="988.501" cy="442.805" r="8.5"/>
<circle fill="#FFFFFF" cx="759.798" cy="822.565" r="8.5"/>
<circle fill="#FFFFFF" cx="316.086" cy="822.565" r="8.5"/>
<circle fill="#FFFFFF" cx="97.5" cy="443.729" r="8.5"/>
<circle fill="#FFFFFF" cx="428.465" cy="300.5" r="12.75"/>
<circle fill="#ED8540" cx="540.953" cy="444.744" r="31.875"/>
<circle fill="#FFFFFF" cx="738.952" cy="460.75" r="12.75"/>
<circle fill="#FFFFFF" cx="511.595" cy="577.5" r="12.75"/>
</svg>
